# xmcd CD database file
#
# Track frame offsets:
#	150
#	21495
#	40820
#	63590
#
# Disc length: 1130 seconds
#
# Revision: 11
# Processed by: cddbd v1.5.1PL0 Copyright (c) Steve Scherf et al.
# Submitted via: CDex 1.51
#
DISCID=32046804
DTITLE=池田綾子 - 僕たちのTomorrow
DYEAR=2004
DGENRE=JPop
TTITLE0=僕たちのTomorrow
TTITLE1=白いギフト
TTITLE2=朝日の中で
TTITLE3=僕たちのTomorrow （int）
EXTD=YEAR: 2004.2.25
EXTT0=
EXTT1=
EXTT2=
EXTT3=
PLAYORDER=
